<?xml version="1.0" encoding="UTF-8" standalone="no"?>
<!DOCTYPE svg PUBLIC "-//W3C//DTD SVG 20010904//EN"
"http://www.w3.org/TR/2001/REC-SVG-20010904/DTD/svg10.dtd">
<svg xmlns="http://www.w3.org/2000/svg" xmlns:xlink="http://www.w3.org/1999/xlink" xmlns:xml="http://www.w3.org/XML/1998/namespace" width="120" height="120">
  <defs>
    <linearGradient xlink:href="#a" id="i" x1=".05217391" x2=".78260869" y1=".9765625" y2=".0078125"/>
    <linearGradient id="a">
      <stop offset="0" stop-opacity=".09550562"/>
      <stop offset="1" stop-opacity="0"/>
    </linearGradient>
    <linearGradient xlink:href="#b" id="j" x1="1.5572519" x2=".06299213" y1="-.55303031" y2=".546875"/>
    <linearGradient id="b">
      <stop offset="0" stop-color="#fff"/>
      <stop offset="1" stop-color="#fff" stop-opacity="0"/>
    </linearGradient>
    <linearGradient xlink:href="#c" id="k" x1=".88034189" x2=".08547009" y1=".2109375" y2="1.1796875"/>
    <linearGradient id="c">
      <stop offset="0" stop-color="#dadada"/>
      <stop offset=".34923077" stop-color="#f1f1f1"/>
      <stop offset="1" stop-color="#f0f0f0"/>
    </linearGradient>
    <linearGradient xlink:href="#c" id="l" x1=".63247865" x2="-.37606838" y1=".328125" y2="1.328125"/>
    <linearGradient id="d">
      <stop offset="0" stop-color="#fafafa"/>
      <stop offset="1" stop-color="#bbb"/>
    </linearGradient>
    <linearGradient id="e">
      <stop offset="0" stop-color="#a3a3a3"/>
      <stop offset="1" stop-color="#4c4c4c"/>
    </linearGradient>
    <linearGradient id="f">
      <stop offset="0" stop-color="#fff"/>
      <stop offset="1" stop-color="#f8f8f8"/>
    </linearGradient>
    <radialGradient xlink:href="#d" id="m" cx="33.966679" cy="35.736916" r="86.70845" fx="33.966679" fy="35.736916" gradientTransform="scale(.9605 1.04113)" gradientUnits="userSpaceOnUse"/>
    <radialGradient xlink:href="#e" id="n" cx="8.824419" cy="3.7561285" r="37.751713" fx="8.824419" fy="3.7561285" gradientTransform="matrix(.96827 0 0 1.03277 3.353553 .646447)" gradientUnits="userSpaceOnUse"/>
    <radialGradient xlink:href="#f" id="o" cx="8.1435566" cy="7.2678967" r="38.158695" fx="8.1435566" fy="7.2678967" gradientTransform="matrix(.96827 0 0 1.03277 3.353553 .646447)" gradientUnits="userSpaceOnUse"/>
    <radialGradient xlink:href="#g" id="p" cx="20.8921" cy="114.5684" r="5.256" fx="20.8921" fy="114.5684" gradientTransform="translate(4.613529 3.979808) scale(.2297)" gradientUnits="userSpaceOnUse"/>
    <radialGradient id="g" cx="20.8921" cy="114.5684" r="5.256" fx="20.8921" fy="114.5684" gradientUnits="userSpaceOnUse">
      <stop offset="0" stop-color="#f0f0f0"/>
      <stop offset="1" stop-color="#9a9a9a"/>
    </radialGradient>
    <radialGradient xlink:href="#h" id="q" cx="20.8921" cy="64.5679" r="5.257" fx="20.8921" fy="64.5679" gradientTransform="translate(4.613529 3.979808) scale(.2297)" gradientUnits="userSpaceOnUse"/>
    <radialGradient id="h" cx="20.8921" cy="64.5679" r="5.257" fx="20.8921" fy="64.5679" gradientUnits="userSpaceOnUse">
      <stop offset="0" stop-color="#f0f0f0"/>
      <stop offset="1" stop-color="#9a9a9a"/>
    </radialGradient>
  </defs>
  <path fill="url(#i)" fill-opacity=".75" fill-rule="evenodd" d="M12.865595 10.064158v87.315383H92.26337V31.893004L72.413928 10.064158H12.865595z" transform="translate(1.898624 .599102)"/>
  <path fill="url(#i)" fill-opacity=".75" fill-rule="evenodd" d="M12.976493 9.7740078V97.957511h80.580778V31.667843c-6.724701-7.395737-13.44686-14.793921-20.177988-22.1839676h-60.40279v.2901324z" transform="translate(1.898624 .599102)"/>
  <path fill="url(#i)" fill-opacity=".75" fill-rule="evenodd" d="M12.733968 9.1937431V98.537776H94.50102V31.444664c-6.834939-7.514789-13.667419-15.031951-20.50878-22.5410533H12.733968v.2901324z" transform="translate(1.898624 .599102)"/>
  <text xml:space="preserve" x="17.35182" y="183.09689" stroke-width="1pt" font-family="bitstream vera sans" font-size="20" font-weight="400" transform="matrix(.6 0 0 .6 1.898624 .599102)" writing-mode="lr"><tspan>names.csv</tspan></text>
  <path fill="#fff" fill-rule="evenodd" d="M14.917654 8.9630458V97.137206h80.466347v-66.13062L75.267404 8.9630458h-60.34975z"/>
  <path fill="url(#j)" fill-rule="evenodd" d="m20.128685 11.015544-.36241 80.8173h79.005277l.0453-19.97783c-1.76675.67952-19.615427-24.59854-42.084807-23.51131-22.48979 1.08822-16.67084-34.06648-36.60336-37.32816z" transform="translate(1.898624 .599102)"/>
  <path fill="url(#k)" fill-rule="evenodd" stroke="#000" stroke-opacity=".36477986" stroke-width=".25589424" d="M10.518199 8.4732438V96.647404h80.466332v-66.13062L70.867949 8.4732438h-60.34975z" transform="translate(1.898624 .599102)"/>
  <path fill="url(#l)" fill-rule="evenodd" d="M91.204057 30.516784c-6.064877-1.7955-13.923587-1.5409-19.860317-.51752 1.02504-6.57739 1.15317-14.82049-.25627-21.5260202L91.204057 30.516784z" transform="translate(1.898624 .599102)"/>
  <text xml:space="preserve" x="18.730721" y="29.897911" stroke-width="1pt" font-family="arial" font-size="10" font-weight="400" writing-mode="lr"><tspan>fname</tspan></text>
  <g transform="translate(-175.7668 -277.739) scale(.69362)">
    <rect width="34.875" height="40.920494" x="6.6035528" y="3.6464462" fill="url(#m)" stroke="url(#n)" stroke-linecap="round" stroke-linejoin="round" color="#000" rx="1.6565964" ry="1.6565964" style="marker:none" transform="translate(357.5334 505.9436)"/>
    <rect width="32.775887" height="38.946384" x="7.6660538" y="4.5839462" fill="none" stroke="url(#o)" stroke-linecap="round" stroke-linejoin="round" color="#000" rx=".21488503" ry=".21488503" style="marker:none" transform="translate(357.5334 505.9436)"/>
    <path fill="#fff" d="M368.52836288 536.12309021c0 .45320402-.3675248.82049912-.82072881.82049912-.45343373 0-.82072882-.3675248-.82072882-.82049912 0-.45343372.3675248-.82072882.82072881-.82072882.45320402 0 .82072882.3675248.82072882.82072882zm0-11.48515c0 .45320402-.3675248.82072882-.82072881.82072882-.45343373 0-.82072882-.3675248-.82072882-.82072882 0-.45343372.3675248-.82072882.82072881-.82072882.45320402 0 .82072882.3675248.82072882.82072882z"/>
    <path fill="url(#p)" d="M9.9950109 29.952326c0 .453204-.3675248.820499-.8207288.820499-.4534338 0-.8207289-.367524-.8207289-.820499 0-.453434.3675248-.820729.8207289-.820729.453204 0 .8207288.367525.8207288.820729z" transform="translate(358.1798 505.9056)"/>
    <path fill="url(#q)" d="M9.9950109 18.467176c0 .453204-.3675248.820729-.8207288.820729-.4534338 0-.8207289-.367525-.8207289-.820729 0-.453434.3675248-.820729.8207289-.820729.453204 0 .8207288.367525.8207288.820729z" transform="translate(358.1798 505.9056)"/>
    <path fill="none" stroke="#000" stroke-opacity=".01754385" stroke-width=".98855311" d="M369.039123 511.4378766v37.9065924"/>
    <path fill="none" stroke="#fff" stroke-opacity=".20467831" d="M370.0334 510.9641154v38.0177126"/>
    <g fill="#9b9b9b" fill-opacity=".54970759" color="#000" transform="matrix(.9091 0 0 1 359.897 505.9436)">
      <rect width="22.000004" height="1" x="15.000002" y="9" rx=".21851288" ry=".09427477" style="marker:none"/>
      <rect width="22.000004" height="1" x="15.000002" y="11" rx=".21851288" ry=".09427477" style="marker:none"/>
      <rect width="22.000004" height="1" x="15.000002" y="13" rx=".21851288" ry=".09427477" style="marker:none"/>
      <rect width="22.000004" height="1" x="15.000002" y="15" rx=".21851288" ry=".09427477" style="marker:none"/>
      <rect width="22.000004" height="1" x="15.000002" y="17" rx=".21851288" ry=".09427477" style="marker:none"/>
      <rect width="22.000004" height="1" x="15.000002" y="19" rx=".21851288" ry=".09427477" style="marker:none"/>
      <rect width="22.000004" height="1" x="15.000002" y="21" rx=".21851288" ry=".09427477" style="marker:none"/>
      <rect width="22.000004" height="1" x="15.000002" y="23" rx=".21851288" ry=".09427477" style="marker:none"/>
      <rect width="9.9000053" height="1" x="14.999992" y="25" rx=".09833083" ry=".09427477" style="marker:none"/>
      <rect width="22.000004" height="1" x="14.999992" y="29" rx=".21851288" ry=".09427477" style="marker:none"/>
      <rect width="22.000004" height="1" x="14.999992" y="31" rx=".21851288" ry=".09427477" style="marker:none"/>
      <rect width="22.000004" height="1" x="14.999992" y="33" rx=".21851288" ry=".09427477" style="marker:none"/>
      <rect width="22.000004" height="1" x="14.999992" y="35" rx=".21851288" ry=".09427477" style="marker:none"/>
      <rect width="15.400014" height="1" x="14.999992" y="37" rx=".15295912" ry=".09427477" style="marker:none"/>
    </g>
  </g>
  <text xml:space="preserve" x="18.730721" y="41.031582" stroke-width="1pt" font-family="arial" font-size="10" font-weight="400" writing-mode="lr"><tspan>nancy</tspan></text>
  <text xml:space="preserve" x="18.730721" y="50.416218" stroke-width="1pt" font-family="arial" font-size="10" font-weight="400" writing-mode="lr"><tspan>erin    </tspan></text>
  <text xml:space="preserve" x="18.730721" y="60.149513" stroke-width="1pt" font-family="arial" font-size="10" font-weight="400" writing-mode="lr"><tspan>tony</tspan></text>
  <text xml:space="preserve" x="-77.196793" y="48.129036" stroke-width="1pt" font-family="arial" font-size="12" font-weight="400" transform="rotate(-90)" writing-mode="lr"><tspan>...</tspan></text>
  <text xml:space="preserve" x="46.79715" y="29.438311" stroke-width="1pt" font-family="arial" font-size="10" font-weight="700" writing-mode="lr"><tspan>,</tspan><tspan x="46.79715" y="39.438311">,</tspan><tspan x="46.79715" y="49.438311">,</tspan><tspan x="46.79715" y="59.438311">,</tspan></text>
  <text xml:space="preserve" x="52.455589" y="41.028484" stroke-width="1pt" font-family="arial" font-size="10" font-weight="400" writing-mode="lr"><tspan>davo</tspan></text>
  <text xml:space="preserve" x="52.789642" y="50.416218" stroke-width="1pt" font-family="arial" font-size="10" font-weight="400" writing-mode="lr"><tspan>bora</tspan></text>
  <text xml:space="preserve" x="52.789642" y="60.288673" stroke-width="1pt" font-family="arial" font-size="10" font-weight="400" writing-mode="lr"><tspan>rapha</tspan></text>
  <text xml:space="preserve" x="52.557446" y="30.072191" stroke-width="1pt" font-family="arial" font-size="10" font-weight="400" writing-mode="lr"><tspan>lnam</tspan></text>
</svg>